<?xml version="1.0" encoding="utf-8"?>
<!-- Generator: Adobe Illustrator 25.3.1, SVG Export Plug-In . SVG Version: 6.00 Build 0)  -->
<svg version="1.1" id="Layer_1" xmlns="http://www.w3.org/2000/svg" xmlns:xlink="http://www.w3.org/1999/xlink" x="0px" y="0px"
	 width="769.62px" height="141.09px" viewBox="0 0 769.62 141.09" style="enable-background:new 0 0 769.62 141.09;"
	 xml:space="preserve">
<style type="text/css">
	.st0{fill:#FFFFFF;}
</style>
<g>
	<g>
		<g>
			<path class="st0" d="M194.97,43.43c14.95,0,27.11,12.16,27.11,27.11s-12.16,27.11-27.11,27.11h-18.59V43.43H194.97 M194.97,27.91
				h-25.58c-4.66,0-8.53,3.86-8.53,8.53v68.21c0,4.66,3.86,8.53,8.53,8.53h25.58c23.58,0,42.63-19.05,42.63-42.63
				S218.55,27.91,194.97,27.91L194.97,27.91z"/>
			<g>
				<path class="st0" d="M312.45,105.43c0,4.24-3.51,7.75-7.75,7.75s-7.75-3.51-7.75-7.75V82.18c0-8.6-6.9-15.5-15.5-15.5
					s-15.5,6.9-15.5,15.5v23.25c0,4.24-3.51,7.75-7.75,7.75s-7.75-3.51-7.75-7.75V35.67c0-4.24,3.51-7.75,7.75-7.75
					c4.24,0,7.75,3.51,7.75,7.75v19.74c4.48-2.66,9.81-4.24,15.5-4.24c17.07,0,31,13.93,31,31V105.43z"/>
				<path class="st0" d="M342.97,105.43c0,4.24-3.51,7.75-7.75,7.75s-7.75-3.51-7.75-7.75v-46.5c0-4.24,3.51-7.75,7.75-7.75
					s7.75,3.51,7.75,7.75V105.43z"/>
				<path class="st0" d="M445.18,105.43c0,4.24-3.51,7.75-7.75,7.75c-2.06,0-4-0.85-5.45-2.3l-29.43-29.43l-29.42,29.43
					c-1.45,1.45-3.39,2.3-5.45,2.3c-4.24,0-7.75-3.51-7.75-7.75V35.67c0-4.24,3.51-7.75,7.75-7.75s7.75,3.51,7.75,7.75v51.11
					l21.68-21.68c1.45-1.57,3.51-2.3,5.45-2.3s4,0.73,5.45,2.3l21.68,21.68V35.67c0-4.24,3.51-7.75,7.75-7.75s7.75,3.51,7.75,7.75
					L445.18,105.43L445.18,105.43z"/>
				<path class="st0" d="M477.64,105.43c0,4.24-3.51,7.75-7.75,7.75s-7.75-3.51-7.75-7.75v-46.5c0-4.24,3.51-7.75,7.75-7.75
					s7.75,3.51,7.75,7.75V105.43z"/>
				<path class="st0" d="M527.54,97.68c2.18,0,3.87-1.69,3.87-3.88s-1.69-3.88-3.87-3.88h-15.5c-10.66,0-19.38-8.72-19.38-19.38
					s8.72-19.38,19.38-19.38h23.25c4.24,0,7.75,3.51,7.75,7.75s-3.51,7.75-7.75,7.75h-23.25c-2.18,0-3.88,1.69-3.88,3.88
					s1.69,3.88,3.88,3.88h15.5c10.66,0,19.37,8.72,19.37,19.38s-8.72,19.38-19.37,19.38h-27.13c-4.24,0-7.75-3.51-7.75-7.75
					s3.51-7.75,7.75-7.75H527.54z"/>
				<path class="st0" d="M589.06,113.18c-17.08,0-31-13.93-31-31s13.92-31,31-31c17.07,0,31,13.93,31,31c0,4.24-3.51,7.75-7.75,7.75
					h-36.7c2.67,4.72,7.63,7.75,13.44,7.75h7.75c4.24,0,7.75,3.51,7.75,7.75s-3.51,7.75-7.75,7.75H589.06z M575.61,74.42h26.88
					c-2.66-4.6-7.75-7.75-13.44-7.75C583.24,66.67,578.28,69.82,575.61,74.42z"/>
				<circle class="st0" cx="335.22" cy="36.64" r="8.72"/>
				<circle class="st0" cx="469.89" cy="36.64" r="8.72"/>
			</g>
		</g>
		<g>
			<path class="st0" d="M97.59,1.29H9.9c-4.91,0-8.89,3.98-8.89,8.89v96.88c0,3.6,2.17,6.84,5.49,8.21
				c3.31,1.37,7.14,0.61,9.69-1.93L59,70.53c3.47-3.47,3.47-9.1,0-12.57s-9.1-3.47-12.57,0L18.79,85.6V19.07H97.6
				c13.31,0,24.13,10.83,24.13,24.13v54.67c0,13.31-10.83,24.13-24.13,24.13H55.2l27.64-27.64c3.47-3.47,3.47-9.1,0-12.57
				s-9.1-3.47-12.57,0l-42.82,42.82c-2.54,2.54-3.3,6.37-1.93,9.69c1.38,3.32,4.62,5.49,8.21,5.49h63.85
				c23.11,0,41.91-18.8,41.91-41.91V43.21C139.51,20.1,120.71,1.29,97.59,1.29z"/>
			<path class="st0" d="M97.22,76.31c4.91,0,8.89-3.98,8.89-8.89V43.58c0-4.91-3.98-8.89-8.89-8.89H73.38
				c-4.91,0-8.89,3.98-8.89,8.89s3.98,8.89,8.89,8.89h14.95v14.95C88.33,72.33,92.31,76.31,97.22,76.31z"/>
		</g>
	</g>
	<g>
		<g>
			<path class="st0" d="M644.35,112.88c-1.91,0-2.95-1.03-2.95-2.95V78.66c0-1.92,1.03-2.95,2.95-2.95h12.52
				c3.83,0,6.77,0.89,8.98,2.51c2.06,1.62,3.09,4.13,3.09,7.08c0,2.07-0.59,3.69-1.62,5.16c-1.03,1.33-2.5,2.51-4.27,3.1
				c2.06,0.59,3.83,1.62,5.01,3.1c1.18,1.48,1.77,3.39,1.77,5.75c0,3.39-1.18,5.9-3.39,7.67s-5.3,2.66-9.13,2.66h-12.96V112.88
				L644.35,112.88z M646.56,92.08h9.42c5.01,0,7.66-2.07,7.66-5.9c0-3.98-2.5-5.9-7.66-5.9h-9.42V92.08z M646.56,108.6h10.16
				c5.15,0,7.66-2.07,7.66-6.2s-2.5-6.2-7.66-6.2h-10.16V108.6z"/>
			<path class="st0" d="M678.14,112.88c-1.91,0-2.95-1.03-2.95-2.95V78.66c0-1.92,1.03-2.95,2.95-2.95h19.14
				c1.47,0,2.21,0.74,2.21,2.21c0,1.48-0.74,2.21-2.21,2.21h-16.79v11.65h15.76c1.47,0,2.21,0.74,2.21,2.21
				c0,1.48-0.74,2.21-2.21,2.21h-15.76v12.24h16.93c1.47,0,2.21,0.74,2.21,2.21c0,1.48-0.74,2.21-2.21,2.21
				C697.43,112.88,678.14,112.88,678.14,112.88z"/>
			<path class="st0" d="M720.46,113.18c-1.77,0-2.65-1.03-2.65-2.8V80.43h-11.04c-1.62,0-2.36-0.74-2.36-2.21
				c0-1.48,0.74-2.21,2.36-2.21h27.68c1.62,0,2.5,0.74,2.5,2.21c0,1.62-0.74,2.21-2.5,2.21h-11.19v30.09
				C723.11,112.29,722.22,113.18,720.46,113.18z"/>
			<path class="st0" d="M735.51,113.18c-1.03,0-1.77-0.3-2.21-1.03s-0.29-1.48,0.15-2.51l14.28-32.01c0.29-0.74,0.74-1.33,1.33-1.77
				c0.59-0.3,1.18-0.59,1.77-0.59s1.18,0.15,1.77,0.59c0.59,0.3,1.03,1.03,1.33,1.77l14.28,32.01c0.44,1.03,0.59,1.77,0.15,2.51
				c-0.29,0.74-1.03,1.03-2.06,1.03c-0.74,0-1.33-0.15-1.77-0.59c-0.44-0.44-0.88-1.03-1.18-1.77l-3.09-6.93H741.4l-2.95,6.93
				c-0.29,0.89-0.74,1.48-1.18,1.77C736.83,113.03,736.24,113.18,735.51,113.18z M750.68,81.9l-7.36,17.55h15.02L750.68,81.9
				L750.68,81.9z"/>
		</g>
	</g>
</g>
</svg>
